:FULLY-SPECIFIED
:FORCE-ALL-JOINTS-BE-3DOF
:DEGREES
1631
root -15.0228 14.5932 19.3955 699.825 -71.4165 380.433
lfemur 12.7065 -11.6161 -13.3868
ltibia 27.2917 -0 0
lfoot -21.6428 29.2606 -0.00167649
ltoes -44.3657 0 0
rfemur -52.6515 -14.2584 7.01882
rtibia 66.005 -0 0
rfoot -9.45828 10.4774 -0.000170868
rtoes 6.17264 -0 0
lowerback 12.9749 4.35581 -7.80434
upperback -0.259521 4.49635 -0.7815
thorax -8.12291 2.46025 2.64434
lowerneck 1.24256 -12.4128 -12.9593
upperneck 3.77715 -17.0693 10.0112
head 2.88723 -8.56822 4.38338
lclavicle -7.50149e-14 3.07702e-14 2.17213e-30
lhumerus -71.7354 -17.1967 104.195
lradius 104.239 -0 0
lwrist 54.4737 0 0
lhand -11.8067 48.9446 0.0627278
lfingers 7.12502 -0 0
lthumb 18.3169 79.6287 0.0291408
rclavicle -2.9915e-14 -1.2764e-14 1.04692e-31
rhumerus 46.687 -3.58321 -54.8478
rradius 18.9472 -0 0
rwrist 20.6441 0 0
rhand -18.5596 -35.9006 0.000758301
rfingers 7.12502 -0 0
rthumb 8.2233 -64.6423 0.00221055
1632
root -15.0357 14.5937 19.4003 700.229 -71.4713 380.015
lfemur 12.7826 -11.6305 -13.3816
ltibia 27.145 -0 0
lfoot -21.6696 29.3477 -0.00159399
ltoes -44.1709 0 0
rfemur -52.659 -14.2449 7.02186
rtibia 66.0519 -0 0
rfoot -9.48939 10.4906 -0.000224881
rtoes 5.88719 -0 0
lowerback 12.947 4.35756 -7.67367
upperback -0.267123 4.52505 -0.747422
thorax -8.11039 2.47018 2.60355
lowerneck 1.34969 -12.4207 -13.4406
upperneck 3.76361 -17.1379 10.6832
head 2.97473 -8.60319 4.64446
lclavicle -6.97523e-14 3.01132e-14 2.94152e-30
lhumerus -71.7811 -17.2181 104.232
lradius 104.211 -0 0
lwrist 54.4981 0 0
lhand -12.6157 48.8025 0.0476493
lfingers 7.12502 -0 0
lthumb 17.8942 79.4744 0.0385942
rclavicle -3.11474e-14 -1.25266e-14 1.18002e-31
rhumerus 46.6908 -3.60919 -54.8662
rradius 18.9439 -0 0
rwrist 20.2854 0 0
rhand -18.5826 -35.9852 0.00086595
rfingers 7.12502 -0 0
rthumb 8.25398 -64.4692 0.00230364
1633
root -15.0474 14.592 19.4064 700.371 -71.511 379.855
lfemur 12.8485 -11.6429 -13.3771
ltibia 27.0354 -0 0
lfoot -21.6956 29.4324 -0.00147481
ltoes -43.9719 0 0
rfemur -52.6806 -14.2057 7.03066
rtibia 66.0942 -0 0
rfoot -9.52407 10.5054 -0.000276574
rtoes 5.54108 -0 0
lowerback 12.9396 4.34047 -7.66466
upperback -0.289148 4.50864 -0.697327
thorax -8.13177 2.46472 2.65511
lowerneck 1.27267 -12.5014 -13.1504
upperneck 3.84271 -17.2205 10.3426
head 2.96526 -8.64256 4.49177
lclavicle -6.3797e-14 2.93698e-14 3.7394e-30
lhumerus -71.8257 -17.239 104.268
lradius 104.177 -0 0
lwrist 54.5164 0 0
lhand -13.3154 48.6798 0.0329895
lfingers 7.12502 -0 0
lthumb 17.4216 79.3017 0.0478151
rclavicle -3.24324e-14 -1.22791e-14 1.26443e-31
rhumerus 46.6968 -3.65043 -54.8954
rradius 18.9406 -0 0
rwrist 19.8899 0 0
rhand -18.6067 -36.074 0.000942436
rfingers 7.12502 0 0
rthumb 8.28493 -64.2946 0.00230364
1634
root -15.0506 14.5889 19.4039 700.671 -71.4081 379.645
lfemur 12.9025 -11.6531 -13.3734
ltibia 26.9667 -0 0
lfoot -21.7205 29.5136 -0.00132432
ltoes -43.7709 0 0
rfemur -52.7154 -14.1428 7.04475
rtibia 66.1309 -0 0
rfoot -9.56166 10.5215 -0.000322488
rtoes 5.14363 -0 0
lowerback 12.9721 4.29215 -7.71634
upperback -0.357169 4.43358 -0.67343
thorax -8.22223 2.43553 2.72051
lowerneck 1.21641 -12.6387 -12.6357
upperneck 3.7891 -17.3639 9.86461
head 2.88745 -8.71141 4.27119
lclavicle -5.72307e-14 2.85501e-14 4.52958e-30
lhumerus -71.8686 -17.259 104.303
lradius 104.138 -0 0
lwrist 54.5278 0 0
lhand -13.8887 48.5794 0.0198615
lfingers 7.12502 -0 0
lthumb 16.9074 79.1138 0.0562295
rclavicle -3.37437e-14 -1.20264e-14 1.29334e-31
rhumerus 46.7049 -3.70522 -54.9342
rradius 18.9375 -0 0
rwrist 19.4626 0 0
rhand -18.6315 -36.1654 0.000982122
rfingers 7.12502 -0 0
rthumb 8.31561 -64.1215 0.00221055
1635
root -15.0394 14.5819 19.3733 701.836 -71.0269 378.867
lfemur 12.943 -11.6608 -13.3706
ltibia 26.943 0 0
lfoot -21.7442 29.5904 -0.00114941
ltoes -43.5699 0 0
rfemur -52.7621 -14.0581 7.06365
rtibia 66.161 -0 0
rfoot -9.60152 10.5385 -0.000359672
rtoes 4.7042 -0 0
lowerback 13.0134 4.14849 -7.99811
upperback -0.573185 4.19939 -0.553875
thorax -8.4871 2.35171 3.04455
lowerneck 1.07494 -12.7199 -12.4319
upperneck 3.89707 -17.4492 9.62543
head 2.91267 -8.75042 4.15473
lclavicle -5.01346e-14 2.76643e-14 5.27789e-30
lhumerus -71.9094 -17.2781 104.337
lradius 104.095 -0 0
lwrist 54.5318 0 0
lhand -14.319 48.5041 0.00934725
lfingers 7.12502 -0 0
lthumb 16.36 78.9136 0.0633343
rclavicle -3.5055e-14 -1.17738e-14 1.26443e-31
rhumerus 46.7147 -3.77186 -54.9814
rradius 18.9345 -0 0
rwrist 19.0082 0 0
rhand -18.6565 -36.2575 0.000982122
rfingers 7.12502 -0 0
rthumb 8.34544 -63.9531 0.00203114
1636
root -15.0486 14.5795 19.3803 702.032 -71.0473 378.534
lfemur 12.9685 -11.6656 -13.3689
ltibia 27.0639 -0 0
lfoot -21.7661 29.6619 -0.00095834
ltoes -43.3709 0 0
rfemur -52.8196 -13.9537 7.08685
rtibia 66.1837 -0 0
rfoot -9.64299 10.5562 -0.0003858
rtoes 4.23206 -0 0
lowerback 13.1066 4.12539 -7.94549
upperback -0.545503 4.17422 -0.494175
thorax -8.50727 2.33857 3.08072
lowerneck 1.1114 -12.7678 -12.5938
upperneck 3.81195 -17.5315 9.91543
head 2.93074 -8.7902 4.2578
lclavicle -4.25904e-14 2.67226e-14 5.95315e-30
lhumerus -71.9475 -17.2958 104.368
lradius 104.049 -0 0
lwrist 54.5235 0 0
lhand -14.5896 48.4568 0.00244756
lfingers 7.12502 -0 0
lthumb 15.7875 78.7043 0.0687172
rclavicle -3.634e-14 -1.15263e-14 1.18002e-31
rhumerus 46.7261 -3.84866 -55.0359
rradius 18.9317 -0 0
rwrist 18.5317 0 0
rhand -18.6813 -36.3489 0.000942436
rfingers 7.12502 -0 0
rthumb 8.37386 -63.7927 0.00177863
1637
root -15.0756 14.5811 19.4191 701.765 -71.4537 378.489
lfemur 12.9773 -11.6673 -13.3683
ltibia 27.4149 -0 0
lfoot -21.7861 29.7269 -0.000760427
ltoes -43.1761 0 0
rfemur -52.8869 -13.8314 7.11386
rtibia 66.198 -0 0
rfoot -9.68543 10.5743 -0.000399273
rtoes 3.73658 -0 0
lowerback 12.9497 4.169 -7.59602
upperback -0.379569 4.3092 -0.47605
thorax -8.22592 2.37784 2.89263
lowerneck 1.27395 -12.756 -12.8669
upperneck 3.59352 -17.5464 10.3317
head 2.90269 -8.80007 4.43121
lclavicle -3.46795e-14 2.5735e-14 6.52804e-30
lhumerus -71.9822 -17.3119 104.396
lradius 104 -0 0
lwrist 54.4999 0 0
lhand -14.6835 48.4404 0
lfingers 7.12502 -0 0
lthumb 15.1983 78.4888 0.0720724
rclavicle -3.75724e-14 -1.12889e-14 1.04692e-31
rhumerus 46.7388 -3.93391 -55.0963
rradius 18.9292 -0 0
rwrist 18.038 0 0
rhand -18.7054 -36.4377 0.00086595
rfingers 7.12502 -0 0
rthumb 8.40032 -63.6434 0.00147209
1638
root -15.0814 14.5808 19.4252 702.334 -71.4891 377.899
lfemur 12.9081 -11.6895 -13.3692
ltibia 27.9783 -0 0
lfoot -21.8039 29.7847 -0.000565778
ltoes -42.9874 0 0
rfemur -52.9628 -13.6932 7.14416
rtibia 66.203 0 0
rfoot -9.7282 10.5926 -0.000399273
rtoes 3.22708 -0 0
lowerback 12.9438 4.16649 -7.45686
upperback -0.393185 4.33496 -0.401805
thorax -8.23499 2.38768 2.88887
lowerneck 1.32777 -12.8681 -13.008
upperneck 3.53575 -17.7115 10.5039
head 2.92392 -8.88282 4.49077
lclavicle -2.64835e-14 2.47119e-14 6.97984e-30
lhumerus -72.0132 -17.3263 104.421
lradius 103.95 -0 0
lwrist 54.4624 0 0
lhand -14.6833 48.4202 -4.96813e-06
lfingers 7.12502 -0 0
lthumb 14.6008 78.2702 0.073212
rclavicle -3.87259e-14 -1.10667e-14 8.76078e-32
rhumerus 46.7527 -4.02593 -55.1617
rradius 18.9268 -0 0
rwrist 17.5321 0 0
rhand -18.7284 -36.5223 0.000758301
rfingers 7.12502 -0 0
rthumb 8.42425 -63.5084 0.00113547
1639
root -15.0868 14.5763 19.4314 702.606 -71.5483 377.63
lfemur 12.707 -11.7542 -13.3717
ltibia 28.7364 -0 0
lfoot -21.8191 29.8341 -0.000384915
ltoes -42.807 0 0
rfemur -53.0461 -13.5412 7.17727
rtibia 66.183 -0 0
rfoot -9.77064 10.6107 -0.0003858
rtoes 2.71293 -0 0
lowerback 12.9107 4.14147 -7.47073
upperback -0.399566 4.30773 -0.345624
thorax -8.22569 2.37695 2.96438
lowerneck 1.31412 -13.0026 -12.5599
upperneck 3.3922 -17.8507 10.0578
head 2.81815 -8.95117 4.29621
lclavicle -1.80837e-14 2.36634e-14 7.29101e-30
lhumerus -72.0397 -17.3386 104.443
lradius 103.9 -0 0
lwrist 54.4128 0 0
lhand -14.6829 48.3619 -1.89724e-05
lfingers 7.12502 -0 0
lthumb 14.0034 78.0517 0.0720724
rclavicle -3.9774e-14 -1.08648e-14 6.82035e-32
rhumerus 46.7674 -4.12301 -55.2306
rradius 18.9247 -0 0
rwrist 17.0188 0 0
rhand -18.7497 -36.6011 0.000627615
rfingers 7.12502 -0 0
rthumb 8.44509 -63.3908 0.0007964
1640
root -15.0685 14.5687 19.4036 703.802 -71.1856 376.897
lfemur 12.3831 -11.8583 -13.3752
ltibia 29.6715 -0 0
lfoot -21.8314 29.8743 -0.000228368
ltoes -42.6368 0 0
rfemur -53.1358 -13.3772 7.21268
rtibia 66.1253 -0 0
rfoot -9.81211 10.6284 -0.000359672
rtoes 2.20343 -0 0
lowerback 12.8956 3.9999 -7.73539
upperback -0.638067 4.08229 -0.253127
thorax -8.47912 2.29647 3.25134
lowerneck 1.45021 -13.0448 -12.7999
upperneck 3.25104 -17.9361 10.4045
head 2.81735 -8.99614 4.4342
lclavicle -9.56163e-15 2.25996e-14 7.44962e-30
lhumerus -72.0613 -17.3487 104.461
lradius 103.85 -0 0
lwrist 54.3526 0 0
lhand -14.6822 48.2692 -4.03088e-05
lfingers 7.12502 -0 0
lthumb 13.4142 77.8362 0.0687172
rclavicle -4.06906e-14 -1.06882e-14 4.82075e-32
rhumerus 46.7828 -4.22345 -55.302
rradius 18.923 -0 0
rwrist 16.503 0 0
rhand -18.7691 -36.6724 0.000484105
rfingers 7.12502 -0 0
rthumb 8.46227 -63.2939 0.000484588
1641
root -15.069 14.564 19.4133 704.149 -71.2184 376.606
lfemur 11.9458 -11.9988 -13.3789
ltibia 30.7659 -0 0
lfoot -21.8406 29.9042 -0.000106215
ltoes -42.4789 0 0
rfemur -53.2307 -13.2033 7.24992
rtibia 66.0329 -0 0
rfoot -9.85197 10.6454 -0.000322488
rtoes 1.70795 -0 0
lowerback 12.8441 3.98106 -7.66079
upperback -0.665505 4.07509 -0.233699
thorax -8.4745 2.29144 3.234
lowerneck 1.47926 -13.1175 -12.8438
upperneck 3.15927 -18.0424 10.5794
head 2.81786 -9.0483 4.48605
lclavicle -9.98866e-16 2.15306e-14 7.44962e-30
lhumerus -72.0774 -17.3561 104.474
lradius 103.801 -0 0
lwrist 54.2834 0 0
lhand -14.6812 48.1457 -6.69408e-05
lfingers 7.12502 -0 0
lthumb 12.8417 77.6269 0.0633343
rclavicle -4.14494e-14 -1.05421e-14 2.95189e-32
rhumerus 46.7985 -4.32558 -55.3746
rradius 18.9215 -0 0
rwrist 15.9897 0 0
rhand -18.7859 -36.7344 0.000339546
rfingers 7.12502 -0 0
rthumb 8.47524 -63.2207 0.000229985
1642
root -15.0673 14.5591 19.4228 704.507 -71.2905 376.3
lfemur 11.4044 -12.1727 -13.3821
ltibia 32.0018 -0 0
lfoot -21.8463 29.9229 -2.75653e-05
ltoes -42.3354 0 0
rfemur -53.3298 -13.0214 7.28851
rtibia 65.9089 -0 0
rfoot -9.88956 10.6615 -0.000276574
rtoes 1.23581 -0 0
lowerback 12.805 3.95078 -7.62221
upperback -0.702901 4.04856 -0.181756
thorax -8.49081 2.28048 3.27479
lowerneck 1.54862 -13.1678 -12.9237
upperneck 3.08255 -18.1209 10.7007
head 2.81152 -9.08885 4.53207
lclavicle 7.52316e-15 2.04668e-14 7.29101e-30
lhumerus -72.0875 -17.3608 104.482
lradius 103.755 -0 0
lwrist 54.207 0 0
lhand -14.6801 47.995 -9.66576e-05
lfingers 7.12502 -0 0
lthumb 12.2942 77.4267 0.0562295
rclavicle -4.20239e-14 -1.04314e-14 1.40798e-32
rhumerus 46.8144 -4.42768 -55.4473
rradius 18.9205 -0 0
rwrist 15.4838 0 0
rhand -18.7998 -36.7856 0.000206607
rfingers 7.12502 -0 0
rthumb 8.48343 -63.1744 6.05969e-05
1643
root -15.0632 14.554 19.4323 704.92 -71.3613 375.956
lfemur 10.7681 -12.377 -13.3836
ltibia 33.3617 -0 0
lfoot -21.8483 29.9293 0
ltoes -42.2084 0 0
rfemur -53.4318 -12.8334 7.32799
rtibia 65.7567 -0 0
rfoot -9.92424 10.6763 -0.000224881
rtoes 0.796382 -0 0
lowerback 12.7432 3.93579 -7.53681
upperback -0.7226 4.04923 -0.161465
thorax -8.47202 2.27817 3.25146
lowerneck 1.50207 -13.2617 -12.9272
upperneck 3.07545 -18.2456 10.7603
head 2.83734 -9.14856 4.53529
lclavicle 1.5923e-14 1.94183e-14 6.97984e-30
lhumerus -72.091 -17.3624 104.485
lradius 103.712 -0 0
lwrist 54.1249 0 0
lhand -14.6787 47.8208 -0.000127215
lfingers 7.12502 -0 0
lthumb 11.78 77.2388 0.0478151
rclavicle -4.23879e-14 -1.03613e-14 3.7235e-33
rhumerus 46.8302 -4.52807 -55.5188
rradius 18.9198 -0 0
rwrist 14.9901 0 0
rhand -18.8103 -36.8242 9.80564e-05
rfingers 7.12502 -0 0
rthumb 8.48629 -63.1583 0
